<?xml version="1.0" standalone="no"?>
<!DOCTYPE svg PUBLIC "-//W3C//DTD SVG 20010904//EN"
 "http://www.w3.org/TR/2001/REC-SVG-20010904/DTD/svg10.dtd">
<svg version="1.0" xmlns="http://www.w3.org/2000/svg"
 width="1024.000000pt" height="1024.000000pt" viewBox="0 0 1024.000000 1024.000000"
 preserveAspectRatio="xMidYMid meet">

<g transform="translate(0.000000,1024.000000) scale(0.100000,-0.100000)"
fill="#000000" stroke="none">
<path d="M2500 8274 c-88 -19 -212 -83 -289 -148 -116 -99 -193 -224 -231
-372 -20 -76 -20 -122 -20 -2621 0 -2836 -5 -2622 70 -2778 73 -151 178 -255
325 -325 160 -76 -69 -70 2766 -70 2314 0 2549 1 2608 16 242 60 425 226 508
459 l28 80 0 2600 0 2600 -28 80 c-87 247 -289 428 -535 480 -100 22 -5104 20
-5202 -1z m5231 -151 c161 -55 293 -182 366 -353 l28 -65 5 -450 c3 -247 5
-451 5 -451 0 -1 -106 50 -235 115 -130 64 -285 136 -345 160 -61 24 -150 63
-200 87 -81 38 -94 42 -135 35 -104 -19 -434 -89 -855 -182 -697 -155 -784
-174 -1030 -224 -126 -26 -244 -54 -261 -62 -30 -13 -40 -11 -223 52 -105 36
-282 104 -394 151 -222 94 -394 157 -407 149 -5 -3 -102 -71 -217 -152 -114
-81 -276 -194 -358 -252 -149 -105 -370 -264 -488 -351 -33 -25 -62 -51 -65
-57 -2 -7 44 -61 102 -121 l105 -108 -87 -17 c-48 -9 -145 -23 -217 -32 -71
-9 -173 -23 -225 -31 -52 -9 -111 -18 -131 -21 -31 -4 -54 3 -135 46 -55 29
-129 74 -166 101 l-68 50 -1 72 c0 40 0 385 1 766 1 767 0 747 67 875 76 144
240 263 403 290 14 2 1166 4 2560 3 l2535 -1 66 -22z m-587 -1074 c7 -31 17
-27 -168 -65 -101 -20 -353 -81 -419 -100 -16 -5 -18 0 -15 38 l3 43 100 18
c55 9 186 37 290 61 105 24 193 41 196 37 4 -3 9 -18 13 -32z m208 1 c132 -48
332 -133 340 -145 4 -5 8 -25 8 -43 0 -40 0 -40 -145 25 -203 92 -275 132
-285 159 -16 42 -23 42 82 4z m-3185 -126 c57 -25 205 -85 331 -134 l227 -88
14 -56 c8 -30 12 -58 9 -61 -3 -4 -39 10 -79 31 -112 56 -320 151 -462 210
l-129 54 -56 -44 c-32 -24 -133 -98 -227 -165 -93 -67 -270 -196 -392 -287
l-222 -165 -30 27 c-17 15 -31 30 -31 34 0 3 53 44 117 91 65 46 273 200 462
342 189 141 349 257 355 257 6 0 57 -21 113 -46z m2243 -33 c0 -21 -6 -44 -14
-50 -8 -7 -63 -21 -123 -32 -59 -10 -144 -28 -188 -40 -44 -11 -129 -31 -188
-44 l-109 -23 6 21 c3 12 6 33 6 47 0 24 6 26 113 48 61 12 193 42 292 67 99
24 186 44 193 44 7 1 12 -13 12 -38z m764 2 c4 -21 9 -46 12 -55 4 -13 -4 -18
-43 -23 -71 -10 -476 -92 -563 -115 -41 -10 -75 -18 -76 -17 -2 1 5 27 15 57
l18 55 104 23 c57 13 190 43 294 67 105 24 200 44 211 44 17 1 23 -7 28 -36z
m332 -84 c109 -56 203 -105 207 -109 5 -4 7 -22 5 -39 l-3 -32 -201 99 c-111
55 -204 107 -208 117 -6 17 -9 65 -3 65 2 0 93 -46 203 -101z m365 19 c62 -30
145 -77 222 -125 33 -21 37 -28 37 -63 l0 -41 -32 17 c-28 14 -275 152 -287
161 -7 5 -18 83 -11 83 4 0 36 -14 71 -32z m-2200 -126 c-8 -14 -30 -22 -88
-32 -43 -6 -161 -30 -263 -51 -102 -22 -191 -41 -199 -42 -8 -1 -19 14 -27 35
l-13 37 32 6 c18 3 82 15 142 26 61 11 178 31 260 45 83 14 152 28 155 31 10
10 11 -37 1 -55z m729 9 c0 -46 -2 -50 -27 -55 -16 -3 -136 -26 -268 -51 -132
-25 -262 -53 -289 -61 -27 -7 -51 -13 -52 -11 -3 3 13 78 18 81 1 1 95 24 208
50 113 27 246 59 295 71 122 31 115 33 115 -24z m860 -100 c0 -110 -2 -130
-16 -135 -21 -8 -118 -23 -251 -40 -56 -6 -105 -14 -107 -17 -3 -2 -1 -11 4
-19 8 -14 93 -7 338 28 l32 4 0 -134 0 -135 -77 -16 c-43 -9 -120 -23 -172
-31 -95 -15 -110 -20 -97 -33 15 -15 207 5 324 34 22 5 22 5 22 -126 0 -127
-1 -131 -22 -136 -88 -20 -129 -27 -172 -30 -27 -2 -54 -9 -60 -15 -11 -11
122 -7 212 6 l43 6 -3 -128 -3 -128 -40 -7 c-22 -4 -76 -12 -119 -19 -91 -14
-106 -18 -106 -32 0 -11 165 -5 238 8 l32 6 0 -150 c0 -117 -3 -151 -14 -155
-7 -3 -67 -10 -132 -17 -160 -15 -182 -19 -190 -32 -7 -12 217 -5 299 8 l37 7
0 -266 0 -266 -42 -5 c-78 -9 -158 -16 -158 -14 0 2 4 18 9 36 9 31 8 34 -22
52 -18 11 -44 20 -59 20 -23 0 -27 4 -25 27 2 22 -3 29 -21 31 -29 4 -69 -21
-138 -88 -56 -54 -65 -75 -39 -94 13 -9 11 -17 -15 -56 -33 -50 -38 -94 -14
-128 8 -12 13 -30 9 -40 -6 -18 -50 -72 -60 -72 -3 0 -5 31 -5 69 0 39 -5 73
-10 76 -6 4 -8 11 -5 16 4 5 -3 9 -14 9 -17 0 -21 6 -21 35 0 28 -5 36 -23 40
-40 11 -676 -60 -692 -77 -9 -8 -28 -878 -21 -940 8 -67 8 -68 44 -77 23 -6
66 -6 112 -1 113 14 504 12 535 -2 14 -6 25 -15 25 -19 0 -4 -20 -22 -44 -38
-45 -31 -56 -48 -56 -84 0 -36 29 -57 79 -57 41 0 50 -5 93 -47 26 -26 48 -53
48 -60 0 -27 -512 -12 -1594 47 -99 6 -194 10 -213 10 l-33 0 0 139 0 139 40
40 c43 43 44 62 4 80 -30 14 -33 52 -4 52 10 0 30 -5 44 -11 31 -15 56 2 56
36 0 28 -52 75 -83 75 -53 0 -63 9 -59 52 3 26 0 43 -8 48 -10 6 -4 17 23 42
43 41 57 83 34 105 -13 14 -19 14 -31 3 -10 -8 -16 -8 -16 -2 0 6 5 14 10 17
21 13 -1 24 -27 14 -36 -13 -40 -4 -8 17 l27 18 -3 150 c-1 83 -2 253 -1 377
l2 226 43 7 c23 4 116 11 207 17 91 5 248 18 350 29 102 11 293 29 425 40 132
11 285 25 340 30 55 6 169 15 253 20 151 9 182 17 182 46 0 22 -85 18 -433
-21 -173 -19 -427 -44 -563 -55 -137 -11 -366 -31 -508 -45 -143 -14 -269 -25
-280 -25 l-21 0 -1 684 -1 685 46 10 c25 6 435 90 911 186 476 96 980 202
1120 234 140 32 265 59 278 60 22 1 22 -1 22 -128z m-3020 51 c191 -83 412
-177 465 -199 l50 -19 3 -178 c2 -171 2 -177 -17 -167 -34 19 -208 -19 -208
-45 0 -18 -5 -18 111 6 53 11 101 18 107 15 5 -4 9 -107 9 -250 0 -208 -2
-244 -14 -239 -8 3 -36 -4 -62 -15 -25 -12 -55 -21 -65 -21 -17 0 -35 -17 -27
-25 4 -5 123 19 151 30 16 7 17 -18 17 -439 0 -439 0 -447 -19 -436 -16 8 -19
17 -14 43 4 28 1 37 -22 55 -33 26 -82 36 -115 24 -36 -14 -101 -126 -94 -162
4 -19 -8 -54 -44 -126 -39 -77 -48 -104 -40 -118 7 -13 17 -16 39 -11 34 8 36
2 8 -28 -29 -30 -38 -58 -28 -83 6 -18 1 -26 -29 -45 -20 -13 -46 -41 -57 -61
-18 -34 -18 -38 -3 -55 16 -18 16 -21 -2 -51 -27 -45 -25 -73 10 -117 17 -21
30 -45 30 -54 0 -10 5 -22 11 -28 9 -9 0 -24 -35 -59 -26 -27 -49 -59 -53 -73
-3 -15 -17 -48 -30 -76 -39 -84 -26 -128 37 -128 23 0 27 -3 20 -16 -4 -9 -18
-25 -30 -36 -12 -11 -28 -32 -36 -46 -18 -36 5 -69 47 -69 16 0 46 -7 66 -15
19 -8 44 -15 55 -15 11 0 27 -15 40 -36 11 -19 32 -40 45 -45 52 -20 9 -29
-135 -29 -81 0 -171 3 -201 7 l-54 6 7 111 c8 155 9 913 0 927 -7 13 -235 5
-304 -9 -32 -7 -36 -11 -42 -52 -4 -25 -4 -256 -1 -514 l5 -469 -113 7 c-63 3
-169 9 -236 12 l-123 7 0 203 0 204 59 0 c63 0 91 6 91 21 0 5 -34 9 -75 9
l-75 0 0 130 0 129 88 3 c112 4 108 23 -5 22 l-83 -1 0 114 0 113 85 0 c47 0
85 4 85 9 0 13 -38 21 -107 21 l-63 0 0 105 0 105 95 0 c57 0 95 4 95 10 0 6
-38 10 -95 10 l-95 0 0 85 0 85 95 0 c52 0 95 4 95 9 0 14 -55 21 -125 14
l-65 -6 0 366 0 366 53 5 c28 3 70 7 92 9 23 1 38 6 35 12 -6 12 -100 13 -147
3 l-33 -7 0 124 c0 68 4 126 9 130 6 3 46 8 90 12 62 5 81 9 81 21 0 12 -14
13 -90 8 l-91 -8 3 124 3 123 39 5 c22 3 41 11 44 17 3 10 -8 11 -43 6 l-47
-6 7 104 c3 57 9 112 11 122 6 18 94 82 349 255 83 56 206 144 275 195 99 76
129 93 145 87 11 -4 72 -30 135 -58z m3736 -96 c76 -47 141 -86 146 -86 4 0 8
-13 8 -29 l0 -29 -51 19 c-66 26 -137 61 -203 104 -49 31 -54 38 -58 75 -2 28
0 39 8 36 7 -3 74 -43 150 -90z m-2338 -18 l-3 -43 -285 -56 c-157 -32 -286
-56 -287 -55 -1 1 4 22 11 46 l13 43 179 34 c98 19 217 42 264 52 118 26 112
27 108 -21z m-2438 -623 c0 -19 -3 -35 -6 -35 -12 0 -363 -61 -514 -90 -85
-16 -243 -45 -350 -65 -107 -20 -203 -38 -212 -41 -14 -4 -18 1 -18 25 0 17 2
31 4 31 13 0 386 75 526 105 142 31 376 74 563 104 4 0 7 -15 7 -34z m10 -709
l0 -574 -92 -5 c-983 -57 -1008 -59 -1008 -87 0 -12 -8 -12 380 20 285 24 469
37 613 44 l107 5 -2 -677 -3 -677 -65 0 c-36 1 -284 9 -552 20 l-488 19 0
1143 0 1142 38 7 c20 3 87 17 147 30 61 12 205 39 320 59 116 20 284 51 375
69 91 19 180 34 198 35 l32 1 0 -574z m4050 -774 c0 -121 4 -172 13 -181 10
-11 10 -14 0 -18 -16 -6 -19 -418 -3 -428 6 -3 10 -17 10 -30 0 -13 -4 -27
-10 -30 -20 -13 -10 -52 16 -64 17 -8 24 -17 20 -27 -3 -9 -6 -38 -6 -65 l0
-49 -50 0 c-27 0 -50 4 -50 8 0 5 13 21 30 37 23 22 27 31 18 42 -6 7 -19 11
-29 8 -36 -12 -40 7 -7 29 18 12 34 31 36 43 3 21 -4 30 -43 58 -16 11 -18 16
-7 26 17 18 15 39 -5 61 -15 17 -15 20 10 46 18 19 27 39 27 60 0 33 -31 105
-50 117 -16 10 -12 35 6 35 21 0 43 28 44 54 0 33 -30 56 -73 56 -31 0 -38 3
-33 15 4 11 -2 15 -22 15 l-27 1 40 35 40 34 -27 24 c-15 13 -32 26 -39 28
-10 3 -10 11 -1 38 19 52 15 84 -14 111 -14 13 -30 33 -34 44 -7 18 -2 21 34
26 22 3 74 7 114 7 l72 2 0 -168z m-710 -86 l0 -83 -77 -7 c-43 -4 -95 -10
-115 -13 l-38 -6 0 91 0 91 68 4 c37 2 88 4 115 5 l47 2 0 -84z m-306 18 c8
-63 8 -122 -2 -128 -4 -2 -56 -8 -115 -12 l-107 -7 0 86 0 86 43 5 c23 3 53 7
67 10 14 2 44 4 66 5 l41 1 7 -46z m330 -196 c3 -13 6 -33 6 -46 0 -20 4 -23
32 -20 25 2 34 9 39 28 5 21 7 22 13 8 4 -9 6 -27 4 -40 -2 -19 -11 -24 -47
-29 -26 -3 -49 -13 -57 -24 -20 -27 -17 -69 7 -91 19 -17 22 -17 49 -2 28 16
28 16 35 -16 4 -17 7 -35 5 -41 -1 -5 -3 -24 -4 -40 -2 -17 -8 -40 -14 -51 -8
-14 -8 -32 -2 -53 8 -30 7 -33 -21 -43 -50 -17 -112 -53 -123 -70 -15 -24 9
-47 56 -54 40 -7 59 -21 36 -28 -7 -3 -68 -7 -135 -9 l-123 -5 0 313 0 313 73
10 c39 5 93 10 118 11 40 1 47 -2 53 -21z m-324 -317 l0 -309 -104 -7 c-58 -4
-109 -4 -115 -1 -6 4 -10 118 -11 305 l-1 299 63 6 c35 3 77 8 93 9 17 2 40 5
53 6 l22 1 0 -309z m440 5 c0 -3 -4 -8 -10 -11 -5 -3 -10 -1 -10 4 0 6 5 11
10 11 6 0 10 -2 10 -4z m569 -643 l1 -93 -32 0 c-44 1 -180 19 -186 25 -3 2 1
11 7 19 7 8 10 24 6 36 -6 17 -2 20 29 20 22 0 45 9 64 25 17 14 37 25 46 25
24 0 38 36 35 99 -1 32 2 64 7 72 11 16 21 -85 23 -228z m-2495 39 l1 -52 -67
0 c-65 0 -68 1 -68 24 0 16 12 31 38 49 77 52 94 48 96 -21z m-2174 -73 c173
-6 383 -14 465 -18 l150 -6 3 -153 3 -153 -33 5 c-64 11 -637 46 -858 54 -124
4 -224 10 -222 15 1 4 2 68 2 143 l0 136 88 -6 c48 -4 229 -11 402 -17z m4250
-30 c0 -5 -9 -9 -20 -9 -22 0 -27 16 -7 23 15 5 27 -1 27 -14z m-2830 -45
c283 -9 515 -17 516 -18 0 0 -4 -68 -10 -151 l-11 -150 -60 2 c-82 3 -785 33
-970 41 l-150 7 -3 148 -3 149 88 -6 c49 -4 320 -13 603 -22z m704 -40 l46 -7
0 -144 0 -144 -62 3 -63 3 -3 148 c-3 166 -10 153 82 141z m1006 -21 c207 -10
500 -17 735 -16 l390 1 0 -191 0 -190 -120 6 c-66 4 -281 16 -478 27 -197 11
-444 24 -550 30 -312 17 -295 13 -319 68 -65 147 -147 259 -208 286 -16 6 -3
6 550 -21z m1528 -39 c9 -2 12 -50 12 -195 l0 -191 -107 6 c-60 4 -126 9 -149
12 l-41 6 -11 63 c-7 34 -12 119 -12 188 l0 126 148 -5 c81 -3 153 -7 160 -10z"/>
<path d="M6475 6213 c-231 -28 -555 -90 -573 -108 -4 -4 -9 -235 -10 -513 l-4
-507 89 3 c206 6 583 45 656 68 l47 16 0 524 0 524 -87 -1 c-49 -1 -101 -4
-118 -6z m103 -200 l-3 -88 -100 -12 c-55 -7 -110 -15 -122 -18 -22 -5 -23 -3
-23 79 l0 85 33 6 c17 3 64 12 102 19 125 24 116 29 113 -71z m-330 -55 l-3
-83 -56 -11 c-30 -6 -83 -14 -117 -18 l-62 -7 0 84 0 84 88 15 c48 9 102 16
120 17 l33 1 -3 -82z m336 -280 c3 -90 7 -226 8 -303 l3 -140 -85 -7 c-47 -4
-106 -9 -133 -13 l-47 -6 2 293 3 292 40 8 c35 8 178 35 196 37 4 1 9 -72 13
-161z m-340 -195 l-9 -278 -90 -12 c-49 -6 -100 -12 -113 -12 l-22 -1 2 283 3
282 110 16 c61 9 114 12 119 8 4 -4 4 -131 0 -286z"/>
<path d="M5470 6029 c-36 -5 -121 -19 -190 -32 l-125 -23 -7 -50 c-3 -27 -7
-238 -7 -470 -1 -322 2 -424 12 -435 10 -13 34 -14 171 -7 96 5 172 14 190 23
17 7 42 17 56 20 52 15 50 -5 50 506 l0 479 -42 -1 c-24 -1 -72 -5 -108 -10z
m50 -199 l0 -90 -27 0 c-16 0 -38 -3 -50 -6 -23 -6 -23 -5 -23 84 l0 91 28 4
c76 11 72 17 72 -83z m-180 -25 l0 -85 -29 0 c-16 0 -36 -3 -45 -6 -14 -5 -16
5 -16 78 0 47 3 88 7 91 3 4 24 7 45 7 l38 0 0 -85z m176 -425 l2 -250 -28 0
c-16 0 -35 -3 -44 -6 -14 -6 -16 21 -16 250 l0 256 43 0 42 0 1 -250z m-176
-9 c0 -273 3 -261 -61 -261 l-29 0 0 249 0 250 33 4 c17 2 38 5 45 5 9 2 12
-54 12 -247z"/>
<path d="M6228 4823 c-28 -4 -36 -17 -19 -27 14 -9 99 5 118 20 16 12 12 13
-27 12 -25 0 -57 -3 -72 -5z"/>
<path d="M6114 4805 c-18 -14 -18 -14 3 -15 23 0 39 15 25 24 -5 3 -18 -1 -28
-9z"/>
<path d="M5992 4795 c-15 -17 -5 -19 48 -9 22 5 28 9 18 15 -20 13 -52 10 -66
-6z"/>
<path d="M5718 4783 c-39 -6 -35 -23 6 -23 21 0 36 6 40 15 3 9 0 14 -7 14 -7
-1 -24 -4 -39 -6z"/>
<path d="M5465 4772 c-78 -4 -125 -13 -120 -23 3 -5 36 -7 73 -4 37 3 106 5
153 5 66 0 90 4 100 16 11 14 3 15 -77 12 -49 -2 -107 -4 -129 -6z"/>
<path d="M5238 4753 c6 -2 18 -2 25 0 6 3 1 5 -13 5 -14 0 -19 -2 -12 -5z"/>
<path d="M6300 4673 c-57 -9 -70 -14 -70 -29 0 -14 8 -16 53 -10 28 4 56 11
61 16 9 9 0 31 -12 29 -4 -1 -18 -3 -32 -6z"/>
<path d="M5980 4643 c-49 -6 -63 -23 -18 -23 42 0 68 8 68 21 0 5 -3 8 -7 7
-5 0 -24 -3 -43 -5z"/>
<path d="M6105 4640 c3 -5 13 -10 21 -10 8 0 14 5 14 10 0 6 -9 10 -21 10 -11
0 -17 -4 -14 -10z"/>
<path d="M5725 4620 c3 -5 10 -10 16 -10 5 0 9 5 9 10 0 6 -7 10 -16 10 -8 0
-12 -4 -9 -10z"/>
<path d="M5760 4626 c0 -9 37 -12 55 -5 15 6 11 8 -17 8 -21 1 -38 -1 -38 -3z"/>
<path d="M5353 4608 c2 -7 10 -13 17 -13 7 0 15 6 18 13 2 7 -5 12 -18 12 -13
0 -20 -5 -17 -12z"/>
<path d="M5436 4611 c-3 -5 3 -11 14 -14 21 -5 32 1 24 14 -7 12 -31 11 -38 0z"/>
<path d="M5513 4608 c2 -7 14 -13 27 -13 13 0 25 6 28 13 2 8 -7 12 -28 12
-21 0 -30 -4 -27 -12z"/>
<path d="M5500 4473 c-8 -1 -82 -6 -165 -13 -82 -6 -160 -13 -173 -16 l-22 -4
2 -473 3 -472 45 -2 c25 -1 85 -7 133 -13 100 -13 281 -5 294 14 5 6 7 230 5
499 l-4 487 -51 -2 c-29 -2 -59 -4 -67 -5z m23 -160 c-2 -43 -6 -84 -9 -90 -2
-8 -22 -13 -52 -13 l-49 0 -7 53 c-12 105 -12 104 47 115 28 5 57 10 64 11 8
1 10 -21 6 -76z m-185 -20 l-3 -88 -42 -3 -43 -3 0 90 0 91 45 0 46 0 -3 -87z
m182 -443 l0 -290 -55 0 -55 0 0 283 c0 156 2 286 5 289 3 2 27 5 55 7 l50 2
0 -291z m-178 -5 l3 -285 -47 0 -48 0 0 285 0 285 45 0 44 0 3 -285z"/>
<path d="M4627 6353 c-14 -4 -16 -8 -6 -19 16 -20 46 -17 76 6 l26 20 -39 -1
c-22 -1 -47 -3 -57 -6z"/>
<path d="M4545 6319 c-4 -6 -5 -13 -2 -16 7 -7 27 6 27 18 0 12 -17 12 -25 -2z"/>
<path d="M4473 6303 c-18 -2 -33 -8 -33 -12 0 -4 10 -7 23 -5 12 1 32 3 45 3
13 1 20 6 17 11 -3 6 -9 9 -13 8 -4 0 -22 -3 -39 -5z"/>
<path d="M3961 6044 c-102 -51 -164 -163 -180 -327 -12 -118 -18 -1017 -7
-1079 5 -28 14 -49 24 -53 22 -8 396 14 444 26 36 9 37 10 43 72 3 34 5 314 3
622 -4 627 -2 604 -77 688 -75 83 -153 99 -250 51z m249 -329 c0 -41 -3 -76
-7 -78 -5 -3 -30 -7 -57 -8 l-48 -4 0 75 0 75 48 10 c27 6 52 10 57 8 4 -2 7
-37 7 -78z m-200 -29 c0 -82 3 -79 -77 -91 l-43 -7 0 81 0 80 43 4 c23 2 50 4
60 5 15 2 17 -8 17 -72z m200 -607 l0 -359 -57 0 -58 0 0 358 0 357 50 5 c28
3 53 4 58 2 4 -2 7 -165 7 -363z m-210 -3 l0 -354 -22 -6 c-13 -3 -38 -6 -55
-6 l-33 0 0 360 0 360 55 0 55 0 0 -354z"/>
<path d="M3448 5972 c-16 -2 -28 -8 -28 -13 0 -12 67 -12 74 0 8 12 -12 17
-46 13z"/>
<path d="M4581 5795 c-160 -46 -107 -47 92 -4 26 6 47 15 47 20 0 15 -50 9
-139 -16z"/>
<path d="M2820 5509 c-103 -12 -374 -51 -378 -54 -4 -3 -2 -758 2 -762 3 -4
327 15 412 23 109 11 102 -15 110 395 4 196 4 368 0 382 -7 30 -13 31 -146 16z
m69 -166 c1 -20 -4 -33 -11 -34 -7 0 -34 -4 -60 -8 l-48 -8 0 48 c0 52 3 55
75 61 34 3 43 -9 44 -59z m-209 -7 c0 -51 -8 -56 -81 -56 l-49 0 0 44 c0 49 2
50 98 54 31 2 32 1 32 -42z m204 -333 l-9 -218 -54 -3 -54 -3 5 148 c3 81 2
179 -1 216 -4 38 -3 71 2 74 16 10 102 19 111 12 5 -5 5 -99 0 -226z m-205 -8
c0 -118 -4 -217 -8 -219 -3 -2 -30 -6 -59 -7 l-53 -3 0 215 0 214 53 6 c29 3
57 6 61 7 4 1 7 -95 6 -213z"/>
<path d="M3053 4532 c-18 -2 -33 -7 -33 -13 0 -12 67 -12 75 0 8 13 -5 17 -42
13z"/>
<path d="M2718 4513 c-43 -11 -11 -23 62 -23 64 0 80 3 80 15 0 12 -13 15 -62
14 -35 -1 -71 -3 -80 -6z"/>
<path d="M2535 4502 c-71 -4 -83 -22 -14 -21 58 0 104 12 78 20 -8 2 -36 3
-64 1z"/>
<path d="M2638 4503 c-10 -2 -18 -9 -18 -15 0 -5 7 -7 16 -4 9 3 20 6 25 6 5
0 9 5 9 10 0 10 -3 11 -32 3z"/>
<path d="M2210 4470 c0 -5 6 -10 14 -10 8 0 18 5 21 10 3 6 -3 10 -14 10 -12
0 -21 -4 -21 -10z"/>
<path d="M2485 4381 c-3 -5 -2 -12 2 -14 13 -7 73 4 73 14 0 12 -67 12 -75 0z"/>
<path d="M2355 4370 c-4 -6 5 -10 19 -10 14 0 26 5 26 10 0 6 -9 10 -19 10
-11 0 -23 -4 -26 -10z"/>
<path d="M2693 4261 c-133 -4 -206 -10 -214 -18 -8 -8 -12 -122 -13 -410 l-1
-398 227 1 c125 1 238 4 252 8 l26 6 0 396 c0 426 0 426 -52 422 -13 -1 -114
-4 -225 -7z m194 -197 c-2 -3 -27 -7 -56 -11 l-51 -6 0 66 0 66 53 3 52 3 3
-59 c2 -32 1 -60 -1 -62z m-207 47 c0 -65 -6 -71 -82 -71 l-38 0 0 44 c0 24
-3 51 -6 59 -6 16 16 23 89 26 l37 1 0 -59z m210 -356 c0 -126 -2 -230 -3
-231 -1 -1 -27 -4 -57 -5 l-55 -4 -3 232 -2 232 32 4 c18 2 46 4 61 3 l29 -1
-2 -230z m-210 -10 l0 -235 -60 0 -60 0 0 235 0 235 60 0 60 0 0 -235z"/>
<path d="M2192 3121 c-20 -12 20 -21 95 -21 34 0 108 -5 164 -11 69 -8 104 -8
111 -1 13 13 -34 19 -202 27 -69 4 -132 8 -140 10 -8 3 -21 1 -28 -4z"/>
<path d="M2633 3083 c15 -2 37 -2 50 0 12 2 0 4 -28 4 -27 0 -38 -2 -22 -4z"/>
<path d="M2955 3070 c28 -12 75 -12 75 0 0 6 -21 10 -47 9 -36 0 -43 -3 -28
-9z"/>
<path d="M2194 3018 c-3 -5 -4 -12 -1 -14 8 -9 386 -9 394 0 19 19 -36 26
-205 25 -104 -1 -185 -5 -188 -11z"/>
<path d="M2630 3005 c0 -12 16 -15 98 -14 110 0 100 12 -20 23 -67 6 -78 5
-78 -9z"/>
<path d="M2863 2993 c9 -2 23 -2 30 0 6 3 -1 5 -18 5 -16 0 -22 -2 -12 -5z"/>
<path d="M3460 3052 c0 -11 237 -28 247 -18 12 11 -2 14 -124 21 -78 4 -123 3
-123 -3z"/>
<path d="M3950 3020 c0 -5 5 -10 10 -10 6 0 10 5 10 10 0 6 -4 10 -10 10 -5 0
-10 -4 -10 -10z"/>
<path d="M4265 3010 c-3 -5 -1 -10 4 -10 6 0 11 5 11 10 0 6 -2 10 -4 10 -3 0
-8 -4 -11 -10z"/>
<path d="M3450 2938 c0 -4 15 -8 33 -9 17 0 79 -3 137 -5 66 -3 101 -2 95 4
-13 12 -265 22 -265 10z"/>
<path d="M4010 2911 c0 -14 31 -22 54 -15 21 7 21 7 1 15 -28 11 -55 11 -55 0z"/>
<path d="M4235 2900 c3 -5 8 -10 11 -10 2 0 4 5 4 10 0 6 -5 10 -11 10 -5 0
-7 -4 -4 -10z"/>
<path d="M5354 2974 c19 -18 97 -16 104 4 3 9 -13 12 -58 12 -56 0 -60 -1 -46
-16z"/>
<path d="M5515 2970 c-4 -6 8 -10 29 -10 20 0 36 5 36 10 0 6 -13 10 -29 10
-17 0 -33 -4 -36 -10z"/>
<path d="M5647 2974 c-18 -19 0 -24 85 -24 53 0 88 4 83 9 -13 11 -159 24
-168 15z"/>
<path d="M5902 2964 c-6 -3 -10 -10 -6 -15 7 -12 101 -12 109 1 3 6 -3 10 -13
10 -11 0 -32 2 -48 5 -16 2 -35 2 -42 -1z"/>
<path d="M6090 2940 c0 -5 18 -10 41 -10 24 0 38 4 34 10 -3 6 -22 10 -41 10
-19 0 -34 -4 -34 -10z"/>
<path d="M6460 2919 c0 -11 42 -22 71 -17 42 6 25 23 -23 24 -27 1 -48 -2 -48
-7z"/>
<path d="M6670 2910 c0 -6 28 -10 65 -10 37 0 65 4 65 10 0 6 -28 10 -65 10
-37 0 -65 -4 -65 -10z"/>
<path d="M5492 2841 c-11 -7 -10 -10 3 -15 25 -9 135 -7 135 3 0 18 -113 28
-138 12z"/>
<path d="M5686 2831 c-8 -12 18 -21 64 -21 48 0 60 15 19 24 -44 9 -77 7 -83
-3z"/>
<path d="M5900 2821 c-21 -14 -13 -18 67 -25 48 -5 73 -3 78 4 4 6 5 13 4 15
-10 9 -136 14 -149 6z"/>
<path d="M6125 2810 c-4 -6 -5 -13 -4 -14 2 -2 50 -6 107 -10 88 -6 102 -5
102 9 0 12 -15 15 -84 15 -46 0 -91 3 -99 6 -8 3 -18 0 -22 -6z"/>
</g>
</svg>
